<?xml version="1.0" encoding="UTF-8"?>
<svg id="Layer_2" data-name="Layer 2" xmlns="http://www.w3.org/2000/svg" viewBox="0 0 1089.27 497.47">
  <defs>
    <style>
      .cls-1 {
        fill: none;
        stroke: #c67aad;
        stroke-miterlimit: 10;
      }
    </style>
  </defs>
  <g id="Layer_2-2" data-name="Layer 2">
    <path id="_1_d_path" data-name="1_d_path" class="cls-1" d="M.5,298.69s1.54-69.52,10.3-90.12,27.29-71.58,53.04-74.16,35.53,52.01,40.17,138.01,35.53,125.14,59.74,127.2,61.8-74.16,65.92-162.22c0,0,3.35-160.08,49.44-162.22s66.95,117.42,72.1,225.05,8.24,197.75,58.71,196.72,71.58-182.82,76.73-297.66,31.93-191.06,61.8-192.09,57.68,101.97,58.71,182.3-4.12,223.5,59.74,224.02,93.73-89.61,94.76-207.02S755.46,2.06,818.8.52s74.16,91.67,75.19,167.88,1.54,167.88,59.22,183.33,61.28-41.2,74.16-72.1c12.87-30.9,24.72-77.76,45.83-73.13s15.96,48.92,11.84,74.16"/>
  </g>
</svg>