<?xml version="1.0" encoding="UTF-8"?>
<svg id="Layer_2" data-name="Layer 2" xmlns="http://www.w3.org/2000/svg" viewBox="0 0 1149.4 785.7">
  <defs>
    <style>
      .cls-1 {
        fill: none;
        stroke: #c67aad;
        stroke-miterlimit: 10;
      }
    </style>
  </defs>
  <g id="Layer_2-2" data-name="Layer 2">
    <path id="_2_d_path" data-name="2_d_path" class="cls-1" d="M8.35,381.7S-26.14,240.28,49.44,156.53s125.62-93.96,213.45-112.34S702.04-4.83,800.08,1.3s261.45,55.04,307.4,135.26,49.02,143.55,31.66,241.59-12.26,152.17-119.49,249.19-473.87,184.85-674.04,150.13-224.68-73.53-251.23-113.36S29.01,534.4,23.91,477.21s15.32-74.55,37.79-102.13c22.47-27.57,147.06-144,346.21-175.66s323.74-27.57,392.17-15.32,184.85,36.77,233.87,100.09,43.55,79.62,43.55,79.62"/>
  </g>
</svg>